<svg xmlns="http://www.w3.org/2000/svg" width="900" height="620" viewBox="0 0 900 620">
  <defs>
    <linearGradient id="sky" x1="0" y1="0" x2="1" y2="1">
      <stop offset="0" stop-color="#edf3f8"/>
      <stop offset="1" stop-color="#ffffff"/>
    </linearGradient>
    <linearGradient id="gold" x1="0" x2="1">
      <stop offset="0" stop-color="#c89617"/>
      <stop offset="1" stop-color="#f0c95f"/>
    </linearGradient>
    <filter id="s" x="-20%" y="-20%" width="140%" height="140%">
      <feDropShadow dx="0" dy="16" stdDeviation="18" flood-color="#0b1f3a" flood-opacity=".2"/>
    </filter>
  </defs>
  <rect width="900" height="620" rx="46" fill="url(#sky)"/>
  <path d="M0 455 C170 390, 310 420, 460 385 C620 350, 760 365, 900 320 L900 620 L0 620Z" fill="#dfe7ef"/>
  <path d="M0 510 C200 460, 380 470, 560 420 C710 378, 815 390, 900 370 L900 620 L0 620Z" fill="#cfdbe6"/>
  <path d="M0 548 C230 510, 425 530, 620 470 C745 430, 835 435, 900 420 L900 620 L0 620Z" fill="#9eb0c1"/>
  <path d="M0 590 C250 560, 480 578, 680 525 C780 498, 842 500, 900 490" fill="none" stroke="#ffffff" stroke-width="8" stroke-dasharray="32 28"/>

  <g filter="url(#s)" transform="translate(105 190)">
    <rect x="315" y="82" width="370" height="205" rx="10" fill="#f9fbfd" stroke="#b6c2ce" stroke-width="4"/>
    <rect x="340" y="105" width="220" height="12" rx="6" fill="#d4a72c"/>
    <text x="455" y="182" text-anchor="middle" font-family="Arial" font-size="38" font-weight="800" fill="#0b1f3a">GOLD MILES</text>
    <text x="455" y="219" text-anchor="middle" font-family="Arial" font-size="18" font-weight="700" letter-spacing="7" fill="#d4a72c">USA</text>
    <path d="M315 278h370v20H315z" fill="#0b1f3a"/>

    <path d="M90 126h145c42 0 70 25 92 64l35 62v46H76V176z" fill="#0b1f3a"/>
    <path d="M112 145h105c30 0 47 14 62 43l14 25H99z" fill="#203c62"/>
    <path d="M106 154h83v51h-91z" fill="#bcd3e6"/>
    <path d="M199 154h29c20 0 33 10 45 31l12 20h-86z" fill="#a7c2d7"/>
    <rect x="88" y="240" width="246" height="52" rx="8" fill="url(#gold)"/>
    <rect x="63" y="276" width="304" height="28" rx="6" fill="#172a44"/>
    <rect x="54" y="249" width="55" height="16" rx="8" fill="#e3b63a"/>
    <rect x="351" y="261" width="44" height="22" rx="4" fill="#0b1f3a"/>
    <circle cx="145" cy="307" r="48" fill="#0b1f3a"/>
    <circle cx="145" cy="307" r="23" fill="#bcc6d1"/>
    <circle cx="326" cy="307" r="48" fill="#0b1f3a"/>
    <circle cx="326" cy="307" r="23" fill="#bcc6d1"/>
    <circle cx="594" cy="307" r="48" fill="#0b1f3a"/>
    <circle cx="594" cy="307" r="23" fill="#bcc6d1"/>
    <circle cx="660" cy="307" r="48" fill="#0b1f3a"/>
    <circle cx="660" cy="307" r="23" fill="#bcc6d1"/>
  </g>
</svg>
